# xmcd CD database file
#
# Track frame offsets:
#	150
#	15390
#	29920
#	50199
#	64777
#	83074
#	96266
#	108059
#	123018
#	137199
#	151032
#	164675
#	177844
#	190421
#	202942
#	216904
#	230025
#	242770
#	255710
#	268918
#	282597
#	296377
#	308106
#	322835
#
# Disc length: 4484 seconds
#
# Revision: 0
# Processed by: cddbd v1.5.2PL0 Copyright (c) Steve Scherf et al.
# Submitted via: CDex 1.51
#
DISCID=60118218
DTITLE=Ella Fitzgerald - Ella Fitzgerald Collection
DYEAR=2012
DGENRE=Jazz
TTITLE0=I Got A Guy
TTITLE1=Rock It For Me
TTITLE2=I Want To Be Happy
TTITLE3=The Dipsy Doodle
TTITLE4=Hallelujah
TTITLE5=I Was Doing All Right
TTITLE6=A-Tisket, A-Tasket
TTITLE7=I'm Just A Jitterbug
TTITLE8=This Time It's Real
TTITLE9=You Can't Be Mine
TTITLE10=We Can't Go On This Way
TTITLE11=Pack Up Your Sins and Go To The Devil
TTITLE12=Everybody Step
TTITLE13=Ella
TTITLE14=Wacky Dust
TTITLE15=Gotta Pebble In My Shoe
TTITLE16=Strictly From Dixie
TTITLE17=Woe Is Me
TTITLE18=FDR Jones
TTITLE19=I Love Each Move You Make
TTITLE20=It's Foxy
TTITLE21=I Found My Yello basket
TTITLE22=Undecided
TTITLE23=Tain't What You Do (It's The Way That Cha Do It
EXTD=YEAR: 2012
EXTT0=
EXTT1=
EXTT2=
EXTT3=
EXTT4=
EXTT5=
EXTT6=
EXTT7=
EXTT8=
EXTT9=
EXTT10=
EXTT11=
EXTT12=
EXTT13=
EXTT14=
EXTT15=
EXTT16=
EXTT17=
EXTT18=
EXTT19=
EXTT20=
EXTT21=
EXTT22=
EXTT23=
PLAYORDER=
